<svg width="712" height="712" viewBox="0 0 712 712" fill="none" xmlns="http://www.w3.org/2000/svg">
<g clip-path="url(#clip0_200_8013)">
<circle cx="355.589" cy="356.337" r="345.119" fill="url(#paint0_linear_200_8013)"/>
<path d="M562.055 589.111L563.184 587.806C568.762 581.352 571.487 574.903 571.358 568.456C571.239 562.145 567.083 555.448 558.889 548.365C556.207 546.046 554.102 544.67 552.576 544.238C551.122 543.868 550.322 543.62 550.177 543.495C553.562 539.579 556.898 537.332 560.186 536.753C563.483 536.31 567.017 537.718 570.788 540.977C575.936 545.427 579.516 550.739 581.527 556.913C583.612 563.149 583.577 570.15 581.424 577.918C579.207 585.757 574.401 593.955 567.005 602.511C562.868 607.297 557.982 612.069 552.348 616.828C547.539 620.779 543.567 624.567 540.433 628.192C536.422 632.833 533.548 637.697 531.811 642.784C527.223 638.564 524.777 634.359 524.472 630.168C524.168 625.977 525.927 621.67 529.751 617.247C531.756 614.927 533.944 612.763 536.312 610.756C538.68 608.75 542.149 605.983 546.717 602.457L489.865 527.085L503.405 511.423L562.055 589.111Z" fill="black"/>
<path d="M479.874 569.381L479.093 575.898L472.758 577.614L469.623 572.172L474.024 567.08L479.874 569.381ZM487.212 582.916C485.708 584.657 483.953 586.047 481.949 587.088C479.945 588.129 477.913 588.761 475.853 588.985C473.793 589.209 471.731 589.021 469.666 588.423C467.602 587.824 465.759 586.825 464.139 585.424C462.519 584.024 461.264 582.345 460.373 580.389C459.482 578.433 458.998 576.419 458.922 574.348C458.846 572.278 459.177 570.176 459.917 568.042C460.657 565.908 461.779 563.972 463.284 562.232C464.788 560.491 466.542 559.101 468.546 558.06C470.55 557.019 472.582 556.387 474.642 556.163C476.703 555.939 478.765 556.126 480.829 556.725C482.894 557.324 484.736 558.323 486.356 559.724C487.977 561.124 489.232 562.803 490.123 564.759C491.014 566.715 491.497 568.729 491.574 570.799C491.65 572.87 491.318 574.972 490.578 577.106C489.838 579.239 488.716 581.176 487.212 582.916ZM461.511 576.211C462.087 579.198 463.492 581.657 465.726 583.588L465.766 583.623L465.842 581.133L471.809 580.277L475.341 584.908L473.519 586.692C476.593 586.843 479.456 586.068 482.108 584.368L479.795 583.697L481.23 577.745L486.911 575.464L487.91 577.656C489.209 574.786 489.561 571.841 488.967 568.822L487.454 570.896L482.372 568.057L482.357 562.03L484.81 561.594L484.769 561.559C482.535 559.628 479.899 558.593 476.86 558.456L478.251 560.41L473.675 564.624L467.972 563.177L468.489 560.717C467.175 561.536 466.01 562.533 464.993 563.709C463.976 564.885 463.158 566.182 462.538 567.601L464.898 566.734L467.153 572.167L463.646 577.304L461.511 576.211Z" fill="black"/>
<path d="M580.648 316.319L579.399 314.957C573.227 308.22 566.704 304.519 559.83 303.855C553.101 303.198 545.459 306.787 536.906 314.624C534.105 317.19 532.379 319.258 531.729 320.828C531.155 322.329 530.792 323.149 530.641 323.288C526.896 319.2 524.92 315.371 524.713 311.802C524.65 308.239 526.587 304.654 530.524 301.048C535.898 296.123 541.994 292.975 548.812 291.602C555.706 290.159 563.15 291.066 571.146 294.323C579.211 297.655 587.336 303.787 595.519 312.719C600.097 317.715 604.567 323.506 608.929 330.091C612.535 335.698 616.072 340.394 619.539 344.179C623.978 349.024 628.795 352.686 633.991 355.166C628.932 359.522 624.154 361.602 619.658 361.406C615.161 361.209 610.798 358.802 606.567 354.184C604.348 351.762 602.318 349.166 600.477 346.397C598.636 343.628 596.124 339.595 592.941 334.296L505.689 385.414L490.708 369.063L580.648 316.319Z" fill="black"/>
<path d="M549.445 401.299L556.282 402.94L557.319 409.893L551.14 412.552L546.27 407.237L549.445 401.299ZM564.757 395.175C566.421 396.991 567.683 399.03 568.541 401.292C569.399 403.553 569.819 405.794 569.802 408.013C569.784 410.233 569.328 412.404 568.435 414.526C567.541 416.648 566.249 418.483 564.558 420.033C562.866 421.583 560.925 422.71 558.733 423.414C556.541 424.119 554.339 424.383 552.126 424.207C549.913 424.031 547.718 423.417 545.54 422.365C543.362 421.312 541.441 419.878 539.777 418.061C538.113 416.244 536.851 414.205 535.993 411.944C535.135 409.682 534.714 407.442 534.732 405.223C534.75 403.003 535.206 400.832 536.099 398.71C536.992 396.588 538.285 394.752 539.976 393.203C541.667 391.653 543.609 390.526 545.801 389.821C547.993 389.117 550.195 388.852 552.408 389.028C554.62 389.204 556.816 389.819 558.994 390.871C561.171 391.924 563.093 393.358 564.757 395.175ZM554.429 421.684C557.678 421.443 560.469 420.254 562.802 418.117L562.844 418.078L560.204 417.688L560.034 411.234L565.401 408.052L567.072 410.211C567.614 406.96 567.146 403.818 565.667 400.786L564.665 403.163L558.512 400.896L556.791 394.569L559.247 393.778C556.355 392.04 553.266 391.299 549.98 391.556L551.999 393.424L548.347 398.477L541.932 397.745L541.774 395.081L541.732 395.119C539.399 397.256 537.971 399.933 537.447 403.148L539.699 401.912L543.613 407.303L541.366 413.19L538.813 412.335C539.52 413.835 540.436 415.199 541.561 416.426C542.686 417.654 543.965 418.686 545.397 419.522L544.768 416.904L550.828 415.179L555.858 419.549L554.429 421.684Z" fill="black"/>
<path d="M287.485 178.521L285.426 179.101C275.244 181.968 268.018 186.782 263.748 193.541C259.56 200.154 259.287 209.924 262.928 222.852C264.12 227.085 265.359 229.946 266.643 231.437C267.895 232.813 268.553 233.615 268.617 233.844C262.44 235.584 257.452 235.631 253.654 233.984C249.939 232.191 247.243 228.319 245.567 222.37C243.279 214.248 243.203 206.305 245.338 198.542C247.441 190.664 252.26 183.442 259.794 176.874C267.443 170.274 278.018 165.073 291.517 161.271C299.068 159.144 307.384 157.543 316.465 156.466C324.141 155.663 330.839 154.455 336.56 152.844C343.881 150.782 350.178 147.711 355.451 143.633C357.316 151.134 356.976 157.157 354.428 161.702C351.88 166.248 347.117 169.503 340.139 171.469C336.478 172.5 332.736 173.245 328.914 173.704C325.092 174.164 319.613 174.657 312.477 175.186L319.827 292.026L295.116 298.986L287.485 178.521Z" fill="black"/>
<path d="M359.06 255.078L364.32 248.867L372.048 251.419L371.576 259.193L363.543 261.455L359.06 255.078ZM360.712 236.058C363.457 235.284 366.223 235.043 369.008 235.335C371.793 235.627 374.328 236.361 376.613 237.536C378.898 238.712 380.904 240.315 382.632 242.344C384.36 244.374 385.583 246.667 386.303 249.223C387.023 251.779 387.176 254.374 386.762 257.007C386.348 259.64 385.473 262.055 384.137 264.25C382.802 266.445 381.022 268.394 378.799 270.097C376.576 271.799 374.091 273.037 371.346 273.811C368.6 274.584 365.835 274.825 363.05 274.533C360.265 274.241 357.73 273.507 355.445 272.332C353.16 271.156 351.153 269.554 349.426 267.524C347.698 265.494 346.474 263.201 345.754 260.645C345.034 258.089 344.881 255.494 345.295 252.861C345.71 250.228 346.585 247.813 347.92 245.618C349.256 243.423 351.035 241.474 353.258 239.771C355.482 238.069 357.966 236.831 360.712 236.058ZM382.73 260.553C384.174 257.069 384.4 253.564 383.407 250.039L383.389 249.976L381.609 252.501L374.849 249.312L374.358 242.105L377.462 241.504C374.384 239.248 370.892 238.094 366.986 238.042L368.921 240.317L363.37 245.496L355.932 243.975L356.396 241.025C353.091 243.108 350.715 245.915 349.267 249.445L352.251 248.332L355.57 254.742L351.469 260.991L348.632 259.766L348.65 259.829C349.643 263.354 351.665 266.226 354.716 268.444L354.611 265.472L362.226 264.237L367.139 269.629L364.924 271.822C366.843 271.873 368.731 271.637 370.586 271.114C372.442 270.591 374.175 269.808 375.785 268.763L372.751 268.048L374.128 260.884L381.267 257.964L382.73 260.553Z" fill="black"/>
<path d="M287.537 38.7053L286.156 39.0943C279.327 41.0177 274.135 43.0189 270.58 45.0979C267.096 47.1332 265.706 49.4044 266.413 51.9116C266.644 52.7326 267.075 53.2338 267.706 53.4153C268.33 53.5747 268.649 53.6766 268.661 53.7209C264.518 54.888 261.342 55.5191 259.133 55.6145C256.994 55.6661 255.762 55.115 255.437 53.9612C254.994 52.3859 255.933 50.5766 258.256 48.5333C260.573 46.4678 264.534 44.2144 270.141 41.7732C275.824 39.3104 283.192 36.8039 292.246 34.2537C297.31 32.8274 302.795 31.4261 308.701 30.0499C313.68 28.9108 318.088 27.801 321.924 26.7204C326.835 25.3373 331.219 23.8508 335.078 22.2611C335.331 23.7465 334.365 25.1681 332.18 26.5259C329.995 27.8837 326.562 29.2217 321.882 30.54C319.427 31.2316 316.956 31.8677 314.469 32.4483C311.983 33.0289 308.439 33.8237 303.837 34.8325L293.973 60.673L277.4 65.341L287.537 38.7053Z" fill="black"/>
<path d="M323.507 47.3315L327.623 45.2548L332.218 44.8779L330.951 46.7167L325.563 48.2341L323.507 47.3315ZM326.923 42.7706C328.765 42.2519 330.552 41.8528 332.286 41.5731C334.02 41.2934 335.54 41.1461 336.847 41.131C338.153 41.1159 339.229 41.2333 340.074 41.4831C340.92 41.733 341.413 42.1058 341.552 42.6015C341.692 43.0973 341.466 43.6724 340.875 44.3269C340.284 44.9814 339.428 45.6431 338.306 46.3119C337.184 46.9808 335.81 47.6484 334.185 48.3149C332.56 48.9813 330.827 49.5739 328.986 50.0925C327.144 50.6112 325.357 51.0103 323.623 51.29C321.889 51.5697 320.369 51.717 319.063 51.7321C317.757 51.7472 316.681 51.6298 315.835 51.38C314.989 51.1301 314.497 50.7573 314.357 50.2616C314.217 49.7658 314.443 49.1907 315.034 48.5362C315.625 47.8817 316.481 47.22 317.603 46.5512C318.725 45.8823 320.099 45.2147 321.724 44.5482C323.349 43.8818 325.082 43.2892 326.923 42.7706ZM337.871 45.6406C339.223 44.663 339.802 43.8324 339.61 43.1487L339.606 43.1364L338.161 43.9361L334.261 44.0467L334.845 42.4577L336.893 41.9339C335.217 41.8002 333.141 41.9704 330.665 42.4445L331.612 42.7246L327.439 44.6011L322.901 45.1782L323.562 44.445C321.202 45.3331 319.343 46.2714 317.983 47.26L320.018 46.6339L321.331 47.6887L317.946 49.6298L316.296 49.7022L316.3 49.7144C316.492 50.3981 317.42 50.8042 319.083 50.9325L319.387 50.265L324.38 49.0349L326.832 49.6583L325.151 50.4361C326.365 50.2089 327.594 49.9201 328.839 49.5695C330.083 49.219 331.282 48.8239 332.436 48.3843L330.596 48.5982L332.363 46.7864L337.264 45.2295L337.871 45.6406Z" fill="black"/>
<path d="M626.986 160.244L626.569 159.581C624.506 156.303 622.606 153.926 620.867 152.45C619.164 151.003 617.584 150.737 616.128 151.654C615.651 151.954 615.397 152.294 615.365 152.673C615.347 153.045 615.325 153.238 615.299 153.255C614.048 151.266 613.251 149.685 612.909 148.512C612.603 147.368 612.785 146.585 613.456 146.164C614.371 145.588 615.608 145.709 617.167 146.527C618.738 147.338 620.637 148.996 622.862 151.503C625.111 154.047 627.602 157.491 630.337 161.837C631.866 164.267 633.434 166.93 635.04 169.827C636.382 172.273 637.632 174.416 638.79 176.258C640.274 178.615 641.753 180.665 643.229 182.41C642.344 182.864 641.343 182.645 640.225 181.755C639.107 180.865 637.841 179.297 636.428 177.05C635.686 175.872 634.977 174.673 634.3 173.454C633.623 172.235 632.678 170.491 631.465 168.221L614.254 168.409L609.249 160.455L626.986 160.244Z" fill="black"/>
<path d="M626.274 181.513L628.083 183.292L628.905 185.694L627.608 185.402L625.981 182.816L626.274 181.513ZM629.527 182.384C630.083 183.268 630.558 184.148 630.953 185.025C631.348 185.902 631.634 186.691 631.811 187.394C631.987 188.096 632.053 188.702 632.007 189.212C631.961 189.722 631.794 190.068 631.506 190.249C631.218 190.43 630.835 190.431 630.355 190.252C629.875 190.072 629.357 189.751 628.8 189.288C628.244 188.825 627.656 188.225 627.036 187.49C626.417 186.755 625.829 185.945 625.273 185.061C624.716 184.177 624.241 183.297 623.846 182.42C623.451 181.543 623.165 180.754 622.989 180.052C622.812 179.35 622.746 178.743 622.792 178.233C622.838 177.723 623.005 177.378 623.293 177.196C623.581 177.015 623.965 177.014 624.444 177.194C624.924 177.373 625.442 177.694 625.999 178.158C626.555 178.621 627.143 179.22 627.763 179.955C628.383 180.691 628.97 181.5 629.527 182.384ZM629.159 188.91C629.936 189.431 630.523 189.567 630.92 189.317L630.927 189.312L630.248 188.702L629.68 186.62L630.735 186.596L631.321 187.59C631.189 186.656 630.818 185.571 630.207 184.335L630.156 184.906L628.463 183.053L627.525 180.725L628.062 180.926C627.212 179.841 626.394 179.037 625.61 178.514L626.257 179.479L625.775 180.414L624.143 179L623.887 178.124L623.879 178.129C623.482 178.379 623.351 178.966 623.485 179.892L623.935 179.913L625.335 182.348L625.264 183.805L624.569 183.064C624.865 183.671 625.201 184.273 625.576 184.87C625.952 185.467 626.35 186.031 626.769 186.56L626.401 185.612L627.746 186.179L629.335 188.494L629.159 188.91Z" fill="black"/>
<path d="M23.8412 303.336L23.6743 304.205C22.8492 308.5 22.4963 311.91 22.6155 314.435C22.731 316.909 23.5204 318.287 24.9837 318.568C25.4628 318.66 25.832 318.556 26.0911 318.255C26.3373 317.952 26.4733 317.803 26.4992 317.808C25.9986 320.414 25.4807 322.341 24.9455 323.59C24.4066 324.787 23.8005 325.321 23.1271 325.192C22.2077 325.015 21.5347 324.01 21.1081 322.177C20.6686 320.341 20.568 317.545 20.8064 313.787C21.054 309.982 21.7249 305.232 22.8188 299.537C23.4307 296.352 24.1666 292.94 25.0266 289.302C25.7623 286.241 26.362 283.504 26.8255 281.091C27.4189 278.002 27.8206 275.177 28.0307 272.615C28.8539 272.874 29.3225 273.789 29.4366 275.363C29.5506 276.936 29.3249 279.194 28.7593 282.138C28.4627 283.682 28.1336 285.22 27.7722 286.752C27.4108 288.284 26.8789 290.459 26.1766 293.276L36.7279 305.662L34.7254 316.086L23.8412 303.336Z" fill="black"/>
<path d="M37.7389 285.739L37.7692 282.904L38.7915 280.26L39.3928 281.455L38.7419 284.843L37.7389 285.739ZM36.3193 282.626C36.5418 281.468 36.8109 280.371 37.1267 279.337C37.4425 278.302 37.7692 277.421 38.1066 276.694C38.4441 275.967 38.7882 275.403 39.1389 275.002C39.4896 274.601 39.8096 274.428 40.099 274.484C40.3883 274.539 40.6215 274.818 40.7986 275.321C40.9757 275.823 41.0863 276.475 41.1304 277.275C41.1745 278.075 41.1515 279.014 41.0614 280.092C40.9714 281.171 40.8151 282.289 40.5926 283.447C40.3701 284.605 40.101 285.701 39.7852 286.736C39.4694 287.771 39.1428 288.652 38.8053 289.379C38.4678 290.106 38.1237 290.67 37.773 291.071C37.4223 291.472 37.1023 291.645 36.813 291.589C36.5236 291.533 36.2904 291.254 36.1133 290.752C35.9362 290.249 35.8256 289.598 35.7815 288.798C35.7374 287.997 35.7604 287.058 35.8505 285.98C35.9405 284.902 36.0968 283.784 36.3193 282.626ZM40.6737 277.336C40.5331 276.326 40.2633 275.782 39.8642 275.705L39.8571 275.704L39.8823 276.718L38.908 278.907L38.2533 278.157L38.5276 276.884C38.0168 277.775 37.5548 278.97 37.1419 280.468L37.5347 280.019L37.3876 282.831L36.4822 285.498L36.2837 284.935C36.1123 286.479 36.0987 287.76 36.2429 288.777L36.4618 287.483L37.3457 287.039L37.4398 289.433L37.0405 290.366L37.0477 290.367C37.4467 290.444 37.8987 290.039 38.4036 289.153L38.1438 288.806L38.837 285.713L39.8025 284.522L39.7543 285.661C39.9593 284.929 40.137 284.171 40.2874 283.388C40.4378 282.605 40.5535 281.836 40.6345 281.079L40.2572 282.155L39.8015 280.692L40.3039 277.562L40.6737 277.336Z" fill="black"/>
<path d="M106.536 434.279L106.536 436.146C106.536 445.378 108.87 452.586 113.537 457.773C118.101 462.855 126.243 465.396 137.964 465.396C141.802 465.396 144.499 465.033 146.055 464.307C147.507 463.581 148.336 463.218 148.544 463.218C148.544 468.819 147.403 473.02 145.121 475.82C142.735 478.517 138.846 479.866 133.452 479.866C126.088 479.866 119.398 478.05 113.382 474.42C107.262 470.79 102.335 465.033 98.6011 457.15C94.867 449.163 93 439.05 93 426.811C93 419.965 93.6224 412.601 94.867 404.718C96.008 398.08 96.5785 392.168 96.5785 386.981C96.5785 380.343 95.4894 374.327 93.3112 368.933C100.053 369.141 105.032 370.852 108.247 374.068C111.463 377.283 113.07 382.054 113.07 388.382C113.07 391.701 112.811 395.02 112.293 398.339C111.774 401.658 110.892 406.378 109.648 412.497L209.533 433.968L209.533 456.372L106.536 434.279Z" fill="black"/>
<path d="M187.779 392.27L183.806 386.382L187.779 380.494L194.197 382.73L194.197 390.013L187.779 392.27ZM172.193 386.382C172.193 383.893 172.645 381.513 173.549 379.243C174.453 376.972 175.669 375.016 177.197 373.375C178.725 371.734 180.546 370.428 182.66 369.457C184.774 368.486 186.99 368 189.307 368C191.625 368 193.84 368.486 195.954 369.457C198.068 370.428 199.889 371.734 201.417 373.375C202.945 375.016 204.161 376.972 205.065 379.243C205.97 381.513 206.422 383.893 206.422 386.382C206.422 388.871 205.97 391.251 205.065 393.522C204.161 395.792 202.945 397.748 201.417 399.389C199.889 401.03 198.068 402.336 195.954 403.308C193.84 404.279 191.625 404.764 189.307 404.764C186.99 404.764 184.774 404.279 182.66 403.308C180.546 402.336 178.725 401.03 177.197 399.389C175.669 397.748 174.453 395.792 173.549 393.522C172.645 391.251 172.193 388.871 172.193 386.382ZM197.979 373.683C195.394 371.645 192.503 370.626 189.307 370.626L189.25 370.626L190.95 372.719L186.671 377.642L180.502 376.35L180.731 373.601C178.108 375.652 176.312 378.313 175.345 381.581L177.713 380.494L180.75 386.382L177.713 392.27L175.345 391.183C176.312 394.452 178.108 397.112 180.731 399.163L180.502 396.394L186.671 395.122L190.95 400.046L189.25 402.138L189.307 402.138C192.503 402.138 195.394 401.119 197.979 399.081L195.458 398.466L196.222 391.778L201.914 388.926L203.232 391.306C203.728 389.706 203.977 388.064 203.977 386.382C203.977 384.7 203.728 383.059 203.232 381.458L201.914 383.838L196.222 380.986L195.458 374.298L197.979 373.683Z" fill="black"/>
<path d="M284.524 664.323L286.11 664.77C293.95 666.978 300.63 666.72 306.151 663.997C311.558 661.337 315.664 655.03 318.468 645.076C319.386 641.817 319.723 639.44 319.478 637.945C319.209 636.538 319.099 635.747 319.149 635.571C323.905 636.911 327.2 638.884 329.032 641.492C330.752 644.163 330.967 647.789 329.677 652.369C327.915 658.623 324.773 663.871 320.251 668.111C315.704 672.44 309.637 675.247 302.049 676.533C294.374 677.793 285.339 676.96 274.944 674.032C269.131 672.394 263.026 670.104 256.629 667.162C251.264 664.605 246.38 662.706 241.976 661.466C236.338 659.878 230.969 659.364 225.867 659.923C227.656 654.247 230.3 650.429 233.8 648.467C237.3 646.505 241.736 646.281 247.11 647.795C249.928 648.589 252.685 649.603 255.38 650.837C258.075 652.072 261.872 653.949 266.771 656.47L308.897 576.78L327.924 582.139L284.524 664.323Z" fill="black"/>
<path d="M268.282 585.28L262.332 587.245L258.282 582.463L261.716 577.548L267.901 579.29L268.282 585.28ZM259.554 597.108C257.44 596.512 255.527 595.559 253.815 594.248C252.103 592.937 250.733 591.437 249.705 589.747C248.677 588.056 248.003 586.197 247.684 584.17C247.365 582.143 247.483 580.145 248.037 578.177C248.591 576.208 249.534 574.443 250.864 572.88C252.194 571.317 253.739 570.083 255.498 569.178C257.258 568.273 259.21 567.708 261.354 567.483C263.498 567.259 265.628 567.444 267.741 568.04C269.855 568.635 271.768 569.588 273.48 570.899C275.192 572.21 276.562 573.71 277.59 575.401C278.619 577.091 279.292 578.95 279.611 580.977C279.93 583.005 279.813 585.003 279.258 586.971C278.704 588.939 277.762 590.704 276.431 592.267C275.101 593.83 273.556 595.064 271.797 595.969C270.038 596.874 268.086 597.439 265.941 597.664C263.797 597.889 261.668 597.703 259.554 597.108ZM254.937 572.172C252.588 573.879 251.032 576.09 250.267 578.805L250.253 578.853L252.437 577.91L255.595 582.722L253.022 587.652L250.742 586.8C251.857 589.518 253.686 591.679 256.231 593.283L255.874 591.011L261.601 589.841L265.875 593.828L264.385 595.58C267.392 595.54 270.081 594.651 272.451 592.914L270.044 592.446L270.439 586.903L275.644 584.447L277.015 586.391L277.028 586.343C277.793 583.628 277.619 580.93 276.507 578.247L275.381 580.241L269.884 577.992L268.824 572.476L271.16 571.926C269.92 571.122 268.585 570.518 267.157 570.116C265.728 569.713 264.275 569.532 262.797 569.571L264.503 571.259L260.719 575.411L254.857 574.46L254.937 572.172Z" fill="black"/>
<path d="M607.642 104.246C574.962 71.5664 536.898 45.9162 494.496 27.9685C450.599 9.42254 404.01 0 355.925 0C307.915 0.0747821 261.326 9.42254 217.429 28.0433C175.027 45.991 136.963 71.6412 104.284 104.321C71.6038 137.001 45.9536 175.065 28.0059 217.466C9.45993 261.363 0.037384 307.953 0.037384 356.037C0.037384 404.048 9.45993 450.711 28.0059 494.609C45.9536 537.01 71.6038 575.075 104.284 607.754C136.963 640.434 175.027 666.084 217.429 684.032C261.326 702.578 307.915 712 356 712C404.01 712 450.675 702.577 494.571 684.032C536.973 666.084 575.037 640.434 607.717 607.754C640.396 575.075 666.047 537.01 683.995 494.609C702.541 450.711 711.963 404.123 711.963 356.037C711.963 308.027 702.54 261.363 683.995 217.466C665.972 174.99 640.321 137.001 607.642 104.246ZM158.949 80.3907C162.165 77.9229 165.306 75.3055 168.596 72.9873C185.871 60.8726 205.015 51.0761 224.458 42.9249C265.888 25.5755 310.906 16.4521 355.925 16.4521C385.913 16.4521 416.648 20.4903 445.588 28.4172C434.147 33.0537 420.162 41.878 396.681 61.9195C377.163 59.8257 357.421 59.7509 337.604 61.6204C311.728 64.0882 285.705 69.8464 260.279 78.8203C237.321 86.8968 219.149 96.0949 206.885 103.124C188.114 96.3941 163.885 88.4672 151.92 84.5785C153.789 85.1768 157.678 81.3629 158.949 80.3907ZM483.204 169.381L422.332 335.547L276.282 363.59L155.584 238.929C163.735 182.393 202.472 132.289 202.472 132.289C202.697 132.14 227.973 113.893 268.505 99.7593C292.137 91.4585 316.216 86.1489 340.221 83.9055C359.814 82.1107 379.332 82.4098 398.626 84.7281L483.204 169.381ZM29.4267 344.147C25.6876 368.302 24.865 393.354 26.8094 418.555C23.8929 412.723 21.5746 407.788 19.8546 403.824C17.6112 388.194 16.4894 372.19 16.4894 355.889C16.4894 305.785 27.3328 258.148 46.851 215.298C44.6823 237.733 45.7292 260.99 47.2996 278.639C38.9241 299.652 32.9415 321.563 29.4267 344.147ZM58.9656 473.596C55.5257 460.957 51.4874 442.561 49.4683 420.5C47.2249 395.597 47.8979 370.845 51.637 347.138C54.4787 328.966 59.0404 311.318 65.3221 294.342C89.9254 273.553 122.53 261.363 140.553 255.755L259.008 378.098L246.594 512.182L130.831 550.845C101.367 529.158 77.2872 500.441 58.9656 473.596ZM410.74 667.729C384.941 684.63 319.731 688.668 293.258 689.639C264.093 684.181 235.75 674.833 209.053 661.97C185.721 650.753 163.585 636.843 143.394 620.542C143.768 619.869 140.253 584.197 140.403 571.186L257.362 532.149L392.343 590.554L410.963 667.505C410.815 667.655 410.74 667.729 410.74 667.729ZM635.012 549.349C614.896 578.364 590.816 605.361 561.875 625.851C534.729 644.995 498.386 651.576 466.079 656.886C463.611 657.26 432.726 662.344 432.502 661.298L413.882 584.272L508.929 485.336L634.788 473.744C636.733 493.787 639.274 523.026 640.77 540.899C638.826 543.74 636.956 546.582 635.012 549.349ZM636.956 448.692C636.508 449.44 636.059 450.263 635.61 451.161L510.275 462.676L442.822 344.671L503.844 178.131L589.993 183.59C608.315 198.92 624.542 215.971 638.302 234.367C655.502 257.475 668.888 282.826 678.012 309.673C668.439 392.831 646.379 434.259 636.956 448.692ZM681.9 261.588C674.498 247.304 665.822 233.544 656.026 220.458C640.546 199.743 622.149 180.673 601.285 163.698C597.471 144.778 587.002 115.015 558.884 83.7559C559.407 84.1298 559.931 84.5785 560.455 84.9524C562.175 86.2237 563.82 87.5698 565.54 88.8411C584.909 104.097 602.557 121.371 618.187 140.366C647.202 175.738 669.113 216.793 681.976 260.84C681.9 261.139 681.9 261.363 681.9 261.588Z" fill="black"/>
</g>
<defs>
<linearGradient id="paint0_linear_200_8013" x1="355.589" y1="11.2173" x2="355.589" y2="701.456" gradientUnits="userSpaceOnUse">
<stop stop-color="#C2EC40"/>
<stop offset="1" stop-color="#1E7177"/>
</linearGradient>
<clipPath id="clip0_200_8013">
<rect width="712" height="712" fill="white"/>
</clipPath>
</defs>
</svg>
