<svg width="240" height="240" viewBox="0 0 240 240" fill="none" xmlns="http://www.w3.org/2000/svg">
<g clip-path="url(#clip0_283_8437)">
<rect width="240" height="240" rx="33" fill="url(#paint0_linear_283_8437)"/>
<path d="M-0.12136 61.2403C-17.3501 -1.19099 46.4715 -7.54575 92.5295 11.3053C119.402 21.0001 137.05 -9.1501 170.34 2.88246C203.63 14.915 163.722 52.8176 214.66 72.2703C265.598 91.7229 240.73 178.758 196.21 179.761C151.69 180.764 163.923 195.403 119.402 228.894C74.8817 262.385 -0.121259 215.859 18.5292 166.726C37.1796 117.593 18.529 128.823 -0.12136 61.2403Z" stroke="white" stroke-opacity="0.08" stroke-width="2"/>
<path d="M95.6978 109.83C93.7099 103.884 103.021 94.2912 110.508 98.3851C117.364 102.134 124.345 99.6056 128.958 101.277C141.101 105.677 136.634 108.006 142.062 113.231C148.668 119.59 151.819 136.241 136.634 136.241C124.145 136.241 127.882 142.307 118.529 144.995C109.177 147.683 98.5712 143.108 98.5712 131.063C98.5712 126.539 99.0086 119.734 95.6978 109.83Z" stroke="white" stroke-opacity="0.08" stroke-width="2"/>
<path d="M8.58968 65.3515C-7.25349 8.05514 51.6125 1.40603 94.1641 18.9155C119.217 28.0698 135.895 0.430651 166.578 11.5213C197.946 22.86 161.26 57.5286 208.06 75.6879C254.968 93.9502 232.648 174.587 190.794 175.499C149.186 176.41 160.646 190.27 119.323 220.961C77.9997 251.651 8.85099 208.939 25.806 163.178C42.7609 118.1 25.8455 127.691 8.58968 65.3515Z" stroke="white" stroke-opacity="0.08" stroke-width="2"/>
<path d="M17.2969 69.4706C2.83921 17.3093 56.7497 10.3658 95.7948 26.5337C119.028 35.1474 134.737 10.0194 162.812 20.1681C192.258 30.8129 158.794 62.2476 201.457 79.1135C244.334 96.1854 224.561 170.424 185.375 171.244C146.678 172.065 157.366 185.145 119.24 213.035C81.1138 240.926 17.8194 202.027 33.0788 159.637C48.3383 118.615 33.1582 126.566 17.2969 69.4706Z" stroke="white" stroke-opacity="0.08" stroke-width="2"/>
<path d="M26.008 73.5821C12.9359 26.5558 61.8909 19.3179 97.4295 34.1443C118.843 42.2175 133.582 19.6005 159.051 28.8073C186.573 38.7582 156.331 66.9589 194.857 82.5315C233.705 98.4131 216.479 166.253 179.959 166.982C144.174 167.711 154.09 180.013 119.161 205.103C84.2319 230.192 26.7917 195.108 40.3557 156.089C53.9197 119.123 40.4748 125.434 26.008 73.5821Z" stroke="white" stroke-opacity="0.08" stroke-width="2"/>
<path d="M34.7153 77.6939C23.0287 35.8026 67.0282 28.2704 99.0603 41.7552C118.654 49.2879 132.423 29.182 155.285 37.4468C180.885 46.7039 153.865 71.6706 188.254 85.9498C223.071 100.641 208.393 162.082 174.539 162.72C141.667 163.358 150.81 174.88 119.078 197.17C87.3461 219.46 35.7602 188.188 47.6287 152.542C59.4972 119.631 47.7876 124.303 34.7153 77.6939Z" stroke="white" stroke-opacity="0.08" stroke-width="2"/>
<path d="M43.4266 82.022C33.1255 45.2657 72.1695 37.4391 100.695 49.5824C118.469 56.5745 131.269 38.9797 151.524 46.3026C175.201 54.8658 151.403 76.5985 181.655 89.5844C212.442 103.085 200.31 158.128 169.124 158.675C139.163 159.222 147.534 169.964 118.999 189.454C90.4644 208.943 44.7328 181.486 54.9057 149.211C65.0787 120.355 55.1044 123.387 43.4266 82.022Z" stroke="white" stroke-opacity="0.08" stroke-width="2"/>
<path d="M52.138 86.5887C43.2225 54.9675 77.311 46.8465 102.33 57.6482C118.285 64.0998 130.114 49.016 147.762 55.397C169.517 63.2663 148.941 81.7651 175.056 93.4576C201.812 105.768 192.228 154.412 163.708 154.868C136.659 155.324 144.258 165.287 118.921 181.976C93.5828 198.665 53.7054 175.021 62.1829 146.118C70.6604 121.318 62.4214 122.71 52.138 86.5887Z" stroke="white" stroke-opacity="0.08" stroke-width="2"/>
<path d="M60.8458 91.1693C53.3158 64.683 82.4488 56.2677 103.962 65.7278C118.096 71.6389 128.956 59.0662 143.997 64.5053C163.83 71.6807 146.476 86.9455 168.453 97.3446C191.179 108.465 184.142 150.71 158.289 151.075C134.152 151.44 140.979 160.623 118.838 174.512C96.6975 188.401 62.6744 168.571 69.4564 143.039C76.2384 122.294 69.7346 122.047 60.8458 91.1693Z" stroke="white" stroke-opacity="0.08" stroke-width="2"/>
<path d="M69.5578 95.7774C63.4133 74.4261 87.5908 65.7165 105.597 73.835C117.912 79.2055 127.803 69.1439 140.236 73.641C158.147 80.1226 144.014 92.1535 161.854 101.259C180.55 111.189 176.06 147.036 152.874 147.309C131.649 147.583 137.703 155.987 118.76 167.076C99.8164 178.164 71.6476 162.148 76.7341 139.988C81.8206 123.298 77.0521 121.412 69.5578 95.7774Z" stroke="white" stroke-opacity="0.08" stroke-width="2"/>
<path d="M78.2704 100.407C73.5115 84.1905 92.7334 75.1865 107.233 81.9635C117.729 86.7934 126.649 79.2429 136.476 82.7981C152.464 88.5858 141.553 97.3827 155.256 105.195C169.922 113.935 167.979 143.383 147.46 143.565C129.147 143.747 134.429 151.372 118.682 159.661C102.936 167.949 80.6215 155.746 84.0125 136.958C87.4034 124.324 84.3703 120.798 78.2704 100.407Z" stroke="white" stroke-opacity="0.08" stroke-width="2"/>
<path d="M86.9804 105.08C83.607 93.9991 97.8735 84.7006 108.867 90.1361C117.542 94.4255 125.494 89.3861 132.713 91.9993C146.779 97.0931 139.09 102.656 148.655 109.175C159.291 116.724 159.896 139.774 142.043 139.865C126.642 139.956 131.152 146.802 118.602 152.29C106.053 157.778 89.5927 149.389 91.2882 133.972C92.9837 125.393 91.6858 120.227 86.9804 105.08Z" stroke="white" stroke-opacity="0.08" stroke-width="2"/>
<path d="M107.8 62.6H105.4C93.5333 62.6 84.2667 65.6 77.6 71.6C71.0667 77.4667 67.8 87.9333 67.8 103C67.8 107.933 68.2667 111.4 69.2 113.4C70.1333 115.267 70.6 116.333 70.6 116.6C63.4 116.6 58 115.133 54.4 112.2C50.9333 109.133 49.2 104.133 49.2 97.2C49.2 87.7333 51.5333 79.1333 56.2 71.4C60.8667 63.5333 68.2667 57.2 78.4 52.4C88.6667 47.6 101.667 45.2 117.4 45.2C126.2 45.2 135.667 46 145.8 47.6C154.333 49.0667 161.933 49.8 168.6 49.8C177.133 49.8 184.867 48.4 191.8 45.6C191.533 54.2667 189.333 60.6667 185.2 64.8C181.067 68.9333 174.933 71 166.8 71C162.533 71 158.267 70.6667 154 70C149.733 69.3333 143.667 68.2 135.8 66.6L108.2 195H79.4L107.8 62.6Z" fill="white"/>
<path d="M161.803 167.036L169.372 161.929L176.941 167.036L174.066 175.286H164.704L161.803 167.036ZM169.372 147C172.572 147 175.631 147.581 178.549 148.743C181.468 149.906 183.982 151.469 186.092 153.433C188.202 155.397 189.881 157.738 191.129 160.455C192.377 163.173 193.001 166.021 193.001 169C193.001 171.979 192.377 174.827 191.129 177.545C189.881 180.262 188.202 182.603 186.092 184.567C183.982 186.531 181.468 188.094 178.549 189.257C175.631 190.419 172.572 191 169.372 191C166.172 191 163.113 190.419 160.194 189.257C157.276 188.094 154.762 186.531 152.652 184.567C150.542 182.603 148.863 180.262 147.615 177.545C146.366 174.827 145.742 171.979 145.742 169C145.742 166.021 146.366 163.173 147.615 160.455C148.863 157.738 150.542 155.397 152.652 153.433C154.762 151.469 157.276 149.906 160.194 148.743C163.113 147.581 166.172 147 169.372 147ZM185.696 180.147C188.316 176.824 189.626 173.109 189.626 169V168.926L186.936 171.112L180.606 165.612L182.268 157.681L185.802 157.975C183.165 154.603 179.745 152.295 175.543 151.051L176.941 154.096L169.372 158L161.803 154.096L163.201 151.051C158.999 152.295 155.579 154.603 152.942 157.975L156.502 157.681L158.137 165.612L151.808 171.112L149.118 168.926V169C149.118 173.109 150.428 176.824 153.047 180.147L153.839 176.906L162.436 177.888L166.102 185.205L163.042 186.9C165.099 187.538 167.209 187.857 169.372 187.857C171.534 187.857 173.644 187.538 175.701 186.9L172.642 185.205L176.308 177.888L184.905 176.906L185.696 180.147Z" fill="white"/>
</g>
<defs>
<linearGradient id="paint0_linear_283_8437" x1="1.54522e-06" y1="-87.5" x2="240" y2="240" gradientUnits="userSpaceOnUse">
<stop stop-color="#C2EC40"/>
<stop offset="1" stop-color="#1E7177"/>
</linearGradient>
<clipPath id="clip0_283_8437">
<rect width="240" height="240" rx="33" fill="white"/>
</clipPath>
</defs>
</svg>
