<svg width="190" height="121" viewBox="0 0 190 121" fill="none" xmlns="http://www.w3.org/2000/svg">
<path d="M46.88 13.92H44.96C35.4667 13.92 28.0533 16.32 22.72 21.12C17.4933 25.8133 14.88 34.1867 14.88 46.24C14.88 50.1867 15.2533 52.96 16 54.56C16.7467 56.0533 17.12 56.9067 17.12 57.12C11.36 57.12 7.04 55.9467 4.16 53.6C1.38667 51.1467 0 47.1467 0 41.6C0 34.0267 1.86667 27.1467 5.6 20.96C9.3333 14.6667 15.2533 9.6 23.36 5.76C31.5733 1.92 41.9733 0 54.56 0C61.6 0 69.1733 0.64 77.28 1.92C84.1067 3.0933 90.1867 3.68 95.52 3.68C102.347 3.68 108.533 2.56 114.08 0.32C113.867 7.2533 112.107 12.3733 108.8 15.68C105.493 18.9867 100.587 20.64 94.08 20.64C90.6667 20.64 87.2533 20.3733 83.84 19.84C80.4267 19.3067 75.5733 18.4 69.28 17.12L47.2 119.84H24.16L46.88 13.92Z" fill="black"/>
<path d="M65.1602 120.296C62.2722 120.296 59.8655 119.308 57.9402 117.332C56.0149 115.356 55.0522 112.265 55.0522 108.06C55.0522 104.311 55.7869 100.384 57.2562 96.2802C58.7762 92.1252 61.0055 88.6292 63.9442 85.7922C66.9335 82.9042 70.4802 81.4602 74.5842 81.4602C76.6615 81.4602 78.2069 81.8152 79.2202 82.5242C80.2335 83.2332 80.7402 84.1712 80.7402 85.3362V85.8682L81.5762 81.8402H92.5202L87.0482 107.68C86.8455 108.44 86.7442 109.251 86.7442 110.112C86.7442 112.291 87.7829 113.38 89.8602 113.38C91.2789 113.38 92.4949 112.721 93.5082 111.404C94.5722 110.087 95.4082 108.364 96.0162 106.236H99.208C97.3335 111.708 95.0029 115.432 92.2162 117.408C89.4802 119.333 86.7189 120.296 83.9322 120.296C81.8042 120.296 80.0815 119.713 78.7642 118.548C77.4975 117.332 76.7375 115.584 76.4842 113.304C75.0149 115.381 73.3683 117.079 71.5443 118.396C69.771 119.663 67.6429 120.296 65.1602 120.296ZM70.1003 112.924C71.367 112.924 72.6082 112.341 73.8242 111.176C75.0909 109.96 75.9522 108.313 76.4082 106.236L80.0562 89.0602C80.0562 88.4012 79.8029 87.7682 79.2962 87.1602C78.7895 86.5012 78.0042 86.1722 76.9402 86.1722C74.9135 86.1722 73.0895 87.3632 71.4682 89.7442C69.8469 92.0752 68.5802 94.9122 67.6682 98.2562C66.7562 101.549 66.3002 104.463 66.3002 106.996C66.3002 109.529 66.655 111.151 67.3643 111.86C68.1243 112.569 69.0363 112.924 70.1003 112.924Z" fill="black"/>
<path d="M105.912 120.296C102.163 120.296 99.2491 119.333 97.1722 117.408C95.0949 115.432 94.0562 112.367 94.0562 108.212C94.0562 104.716 94.7402 100.865 96.1082 96.66C97.5269 92.455 99.7561 88.832 102.796 85.792C105.887 82.701 109.788 81.156 114.5 81.156C117.54 81.156 119.693 81.815 120.96 83.132C122.277 84.449 122.936 86.121 122.936 88.148C122.936 89.921 122.556 91.289 121.796 92.252C121.036 93.215 120.073 93.696 118.908 93.696C118.047 93.696 117.16 93.392 116.248 92.784C116.856 91.112 117.16 89.617 117.16 88.3C117.16 87.337 116.983 86.577 116.628 86.02C116.273 85.463 115.741 85.184 115.032 85.184C113.512 85.184 111.992 86.425 110.472 88.908C108.952 91.391 107.711 94.405 106.748 97.952C105.785 101.499 105.304 104.691 105.304 107.528C105.304 110.011 105.735 111.708 106.596 112.62C107.457 113.481 108.851 113.912 110.776 113.912C113.512 113.912 115.843 113.279 117.768 112.012C119.744 110.745 121.897 108.82 124.228 106.236H126.812C121.188 115.609 114.221 120.296 105.912 120.296Z" fill="black"/>
<path d="M130.736 120.296C128.304 120.296 126.328 119.536 124.808 118.016C123.339 116.496 122.604 114.216 122.604 111.176C122.604 109.909 122.807 108.263 123.212 106.236L127.772 84.8801H125.264L125.872 81.8401H128.38L130.66 71.352L141.908 69.832L139.324 81.8401H143.884L143.276 84.8801H138.716L133.852 107.68C133.649 108.44 133.548 109.251 133.548 110.112C133.548 111.125 133.776 111.86 134.232 112.316C134.739 112.721 135.549 112.924 136.664 112.924C138.133 112.924 139.501 112.316 140.768 111.1C142.035 109.833 142.947 108.212 143.504 106.236H146.696C144.821 111.708 142.415 115.432 139.476 117.408C136.537 119.333 133.624 120.296 130.736 120.296Z" fill="black"/>
<path d="M149.922 120.296C147.49 120.296 145.539 119.561 144.07 118.092C142.6 116.572 141.866 114.292 141.866 111.252C141.866 110.087 142.068 108.415 142.474 106.236L147.642 81.8401H158.586L153.114 107.68C152.911 108.44 152.81 109.251 152.81 110.112C152.81 111.936 153.924 112.848 156.154 112.848C158.028 112.848 160.106 112.189 162.386 110.872C164.716 109.504 166.667 107.781 168.238 105.704L163.906 81.8401H174.622L177.586 98.2561C179.866 95.8241 181.639 93.5441 182.906 91.4161C184.172 89.2881 184.806 87.5401 184.806 86.1721C184.806 85.7161 184.78 85.4121 184.73 85.2601C184.02 85.3611 183.59 85.4121 183.438 85.4121C182.171 85.4121 181.259 85.0321 180.702 84.2721C180.144 83.4611 179.866 82.4231 179.866 81.1561C179.866 80.0411 180.271 79.18 181.082 78.572C181.892 77.9134 182.906 77.584 184.122 77.584C185.743 77.584 187.01 78.2174 187.922 79.484C188.834 80.7511 189.29 82.3721 189.29 84.3481C189.29 86.7801 188.428 89.4151 186.706 92.2521C185.034 95.0391 182.272 98.4331 178.422 102.436L179.106 106.236C179.562 108.769 180.068 110.517 180.626 111.48C181.234 112.443 182.323 112.924 183.894 112.924C184.806 112.924 185.616 112.772 186.326 112.468C186.123 115.001 185.211 116.952 183.59 118.32C182.019 119.637 180.144 120.296 177.966 120.296C175.584 120.296 173.735 119.511 172.418 117.94C171.151 116.319 170.062 113.633 169.15 109.884C166.464 112.873 163.399 115.356 159.954 117.332C156.559 119.308 153.215 120.296 149.922 120.296Z" fill="black"/>
<path d="M151.556 61.5901L156.04 58.3401L160.524 61.5901L158.821 66.8401H153.274L151.556 61.5901ZM156.04 48.8401C157.936 48.8401 159.748 49.2099 161.478 49.9495C163.207 50.6891 164.696 51.6838 165.946 52.9338C167.196 54.1839 168.191 55.6734 168.931 57.4026C169.67 59.1318 170.04 60.9443 170.04 62.8401C170.04 64.7359 169.67 66.5484 168.931 68.2776C168.191 70.0068 167.196 71.4964 165.946 72.7464C164.696 73.9964 163.207 74.9911 161.478 75.7307C159.748 76.4703 157.936 76.8401 156.04 76.8401C154.144 76.8401 152.332 76.4703 150.603 75.7307C148.873 74.9911 147.384 73.9964 146.134 72.7464C144.884 71.4964 143.889 70.0068 143.149 68.2776C142.41 66.5484 142.04 64.7359 142.04 62.8401C142.04 60.9443 142.41 59.1318 143.149 57.4026C143.889 55.6734 144.884 54.1839 146.134 52.9338C147.384 51.6838 148.873 50.6891 150.603 49.9495C152.332 49.2099 154.144 48.8401 156.04 48.8401ZM165.712 69.9339C167.264 67.8193 168.04 65.4547 168.04 62.8401V62.7932L166.446 64.1839L162.696 60.6839L163.681 55.637L165.774 55.8245C164.212 53.6786 162.186 52.2099 159.696 51.4182L160.524 53.3557L156.04 55.8401L151.556 53.3557L152.384 51.4182C149.894 52.2099 147.868 53.6786 146.306 55.8245L148.415 55.637L149.384 60.6839L145.634 64.1839L144.04 62.7932V62.8401C144.04 65.4547 144.816 67.8193 146.368 69.9339L146.837 67.8714L151.931 68.4964L154.103 73.1526L152.29 74.2307C153.509 74.637 154.759 74.8401 156.04 74.8401C157.321 74.8401 158.571 74.637 159.79 74.2307L157.977 73.1526L160.149 68.4964L165.243 67.8714L165.712 69.9339Z" fill="black"/>
</svg>
