<svg width="191" height="121" viewBox="0 0 191 121" fill="none" xmlns="http://www.w3.org/2000/svg">
<path d="M47.84 14.0799H45.92C36.4267 14.0799 29.0133 16.4799 23.68 21.2799C18.4533 25.9732 15.84 34.3466 15.84 46.3999C15.84 50.3466 16.2133 53.1199 16.96 54.7199C17.7067 56.2132 18.08 57.0666 18.08 57.2799C12.32 57.2799 7.99996 56.1066 5.11996 53.7599C2.34663 51.3066 0.959961 47.3066 0.959961 41.7599C0.959961 34.1866 2.82663 27.3066 6.55996 21.1199C10.2933 14.8266 16.2133 9.75991 24.32 5.91991C32.5333 2.07991 42.9333 0.159912 55.52 0.159912C62.56 0.159912 70.1333 0.799912 78.24 2.07991C85.0667 3.25321 91.1467 3.83991 96.48 3.83991C103.307 3.83991 109.493 2.71991 115.04 0.479912C114.827 7.41321 113.067 12.5332 109.76 15.8399C106.453 19.1466 101.547 20.7999 95.04 20.7999C91.6267 20.7999 88.2133 20.5332 84.8 19.9999C81.3867 19.4666 76.5333 18.5599 70.24 17.2799L48.16 120H25.12L47.84 14.0799Z" fill="white"/>
<path d="M66.1202 120.456C63.2322 120.456 60.8255 119.468 58.9002 117.492C56.9749 115.516 56.0122 112.425 56.0122 108.22C56.0122 104.471 56.7469 100.544 58.2162 96.4401C59.7362 92.2851 61.9655 88.7891 64.9042 85.9521C67.8935 83.0641 71.4402 81.6201 75.5442 81.6201C77.6215 81.6201 79.1669 81.9751 80.1802 82.6841C81.1935 83.3931 81.7002 84.3311 81.7002 85.4961V86.0281L82.5362 82.0001H93.4802L88.0082 107.84C87.8055 108.6 87.7042 109.411 87.7042 110.272C87.7042 112.451 88.7429 113.54 90.8202 113.54C92.2389 113.54 93.4549 112.881 94.4682 111.564C95.5322 110.247 96.3682 108.524 96.9762 106.396H100.168C98.2935 111.868 95.9629 115.592 93.1762 117.568C90.4402 119.493 87.6789 120.456 84.8922 120.456C82.7642 120.456 81.0415 119.873 79.7242 118.708C78.4575 117.492 77.6975 115.744 77.4442 113.464C75.9749 115.541 74.3282 117.239 72.5042 118.556C70.7309 119.823 68.6029 120.456 66.1202 120.456ZM71.0602 113.084C72.3269 113.084 73.5682 112.501 74.7842 111.336C76.0509 110.12 76.9122 108.473 77.3682 106.396L81.0162 89.2201C81.0162 88.5611 80.7629 87.9281 80.2562 87.3201C79.7495 86.6611 78.9642 86.3321 77.9002 86.3321C75.8735 86.3321 74.0495 87.5231 72.4282 89.9041C70.8069 92.2351 69.5402 95.0721 68.6282 98.4161C67.7162 101.709 67.2602 104.623 67.2602 107.156C67.2602 109.689 67.6149 111.311 68.3242 112.02C69.0842 112.729 69.9962 113.084 71.0602 113.084Z" fill="white"/>
<path d="M106.872 120.456C103.123 120.456 100.209 119.493 98.1321 117.568C96.0548 115.592 95.0161 112.527 95.0161 108.372C95.0161 104.876 95.7001 101.025 97.0681 96.8199C98.4868 92.6149 100.716 88.9919 103.756 85.9519C106.847 82.8609 110.748 81.3159 115.46 81.3159C118.5 81.3159 120.653 81.9749 121.92 83.2919C123.237 84.6089 123.896 86.2809 123.896 88.3079C123.896 90.0809 123.516 91.4489 122.756 92.4119C121.996 93.3749 121.033 93.8559 119.868 93.8559C119.007 93.8559 118.12 93.5519 117.208 92.9439C117.816 91.2719 118.12 89.7769 118.12 88.4599C118.12 87.4969 117.943 86.7369 117.588 86.1799C117.233 85.6229 116.701 85.3439 115.992 85.3439C114.472 85.3439 112.952 86.5849 111.432 89.0679C109.912 91.5509 108.671 94.5649 107.708 98.1119C106.745 101.659 106.264 104.851 106.264 107.688C106.264 110.171 106.695 111.868 107.556 112.78C108.417 113.641 109.811 114.072 111.736 114.072C114.472 114.072 116.803 113.439 118.728 112.172C120.704 110.905 122.857 108.98 125.188 106.396H127.772C122.148 115.769 115.181 120.456 106.872 120.456Z" fill="white"/>
<path d="M131.696 120.456C129.264 120.456 127.288 119.696 125.768 118.176C124.299 116.656 123.564 114.376 123.564 111.336C123.564 110.069 123.767 108.423 124.172 106.396L128.732 85.04H126.224L126.832 82H129.34L131.62 71.5119L142.868 69.9919L140.284 82H144.844L144.236 85.04H139.676L134.812 107.84C134.609 108.6 134.508 109.411 134.508 110.272C134.508 111.285 134.736 112.02 135.192 112.476C135.699 112.881 136.509 113.084 137.624 113.084C139.093 113.084 140.461 112.476 141.728 111.26C142.995 109.993 143.907 108.372 144.464 106.396H147.656C145.781 111.868 143.375 115.592 140.436 117.568C137.497 119.493 134.584 120.456 131.696 120.456Z" fill="white"/>
<path d="M150.882 120.456C148.45 120.456 146.499 119.721 145.03 118.252C143.56 116.732 142.826 114.452 142.826 111.412C142.826 110.247 143.028 108.575 143.434 106.396L148.602 82H159.546L154.074 107.84C153.871 108.6 153.77 109.411 153.77 110.272C153.77 112.096 154.884 113.008 157.114 113.008C158.988 113.008 161.066 112.349 163.346 111.032C165.676 109.664 167.627 107.941 169.198 105.864L164.866 82H175.582L178.546 98.416C180.826 95.984 182.599 93.704 183.866 91.576C185.132 89.448 185.766 87.7 185.766 86.332C185.766 85.876 185.74 85.572 185.69 85.42C184.98 85.521 184.55 85.572 184.398 85.572C183.131 85.572 182.219 85.192 181.662 84.432C181.104 83.621 180.826 82.583 180.826 81.316C180.826 80.201 181.231 79.3399 182.042 78.7319C182.852 78.0733 183.866 77.7439 185.082 77.7439C186.703 77.7439 187.97 78.3773 188.882 79.6439C189.794 80.911 190.25 82.532 190.25 84.508C190.25 86.94 189.388 89.575 187.666 92.412C185.994 95.199 183.232 98.593 179.382 102.596L180.066 106.396C180.522 108.929 181.028 110.677 181.586 111.64C182.194 112.603 183.283 113.084 184.854 113.084C185.766 113.084 186.576 112.932 187.286 112.628C187.083 115.161 186.171 117.112 184.55 118.48C182.979 119.797 181.104 120.456 178.926 120.456C176.544 120.456 174.695 119.671 173.378 118.1C172.111 116.479 171.022 113.793 170.11 110.044C167.424 113.033 164.359 115.516 160.914 117.492C157.519 119.468 154.175 120.456 150.882 120.456Z" fill="white"/>
<path d="M152.516 61.75L157 58.5L161.484 61.75L159.781 67H154.234L152.516 61.75ZM157 49C158.896 49 160.708 49.3698 162.438 50.1094C164.167 50.849 165.656 51.8437 166.906 53.0937C168.156 54.3438 169.151 55.8333 169.891 57.5625C170.63 59.2917 171 61.1042 171 63C171 64.8958 170.63 66.7083 169.891 68.4375C169.151 70.1667 168.156 71.6563 166.906 72.9063C165.656 74.1563 164.167 75.151 162.438 75.8906C160.708 76.6302 158.896 77 157 77C155.104 77 153.292 76.6302 151.563 75.8906C149.833 75.151 148.344 74.1563 147.094 72.9063C145.844 71.6563 144.849 70.1667 144.109 68.4375C143.37 66.7083 143 64.8958 143 63C143 61.1042 143.37 59.2917 144.109 57.5625C144.849 55.8333 145.844 54.3438 147.094 53.0937C148.344 51.8437 149.833 50.849 151.563 50.1094C153.292 49.3698 155.104 49 157 49ZM166.672 70.0938C168.224 67.9792 169 65.6146 169 63V62.9531L167.406 64.3438L163.656 60.8438L164.641 55.7969L166.734 55.9844C165.172 53.8385 163.146 52.3698 160.656 51.5781L161.484 53.5156L157 56L152.516 53.5156L153.344 51.5781C150.854 52.3698 148.828 53.8385 147.266 55.9844L149.375 55.7969L150.344 60.8438L146.594 64.3438L145 62.9531V63C145 65.6146 145.776 67.9792 147.328 70.0938L147.797 68.0313L152.891 68.6563L155.063 73.3125L153.25 74.3906C154.469 74.7969 155.719 75 157 75C158.281 75 159.531 74.7969 160.75 74.3906L158.937 73.3125L161.109 68.6563L166.203 68.0313L166.672 70.0938Z" fill="white"/>
</svg>
